<svg width="39" height="49" viewBox="0 0 39 49" fill="none" xmlns="http://www.w3.org/2000/svg">
<path fill-rule="evenodd" clip-rule="evenodd" d="M29.0937 36.75C29.0937 38.1024 28.0075 39.2 26.6692 39.2H12.1224C10.784 39.2 9.69789 38.1024 9.69789 36.75C9.69789 35.3976 10.784 34.3 12.1224 34.3H26.6692C28.0075 34.3 29.0937 35.3976 29.0937 36.75ZM9.69789 26.95C9.69789 25.5976 10.784 24.5 12.1224 24.5H19.3958C20.7341 24.5 21.8202 25.5976 21.8202 26.95C21.8202 28.3024 20.7341 29.4 19.3958 29.4H12.1224C10.784 29.4 9.69789 28.3024 9.69789 26.95ZM31.5184 44.1002H7.27352C5.93762 44.1002 4.84904 43.0002 4.84904 41.6502V7.35014C4.84904 6.00019 5.93762 4.90014 7.27352 4.90014H21.8204V12.2501C21.8204 14.9525 23.9952 17.1501 26.6694 17.1501H33.9429V41.6502C33.9429 43.0002 32.8543 44.1002 31.5184 44.1002ZM26.6694 8.36428L30.5147 12.25H26.6694V8.36428ZM38.6026 13.7568C38.4815 13.4603 38.3021 13.1908 38.0815 12.9654L25.959 0.71785C25.7384 0.4949 25.4717 0.3136 25.1783 0.1911C24.885 0.06615 24.5698 0 24.2449 0H7.27346C3.26337 0 0 3.2977 0 7.35V41.65C0 45.7023 3.26337 49 7.27346 49H31.5184C35.5285 49 38.7917 45.7023 38.7917 41.65V14.7C38.7917 14.3717 38.7262 14.0532 38.6026 13.7568Z" fill="#212833"/>
</svg>
