<svg width="47" height="30" viewBox="0 0 47 30" fill="none" xmlns="http://www.w3.org/2000/svg">
<path fill-rule="evenodd" clip-rule="evenodd" d="M34.1817 14.6875C34.1817 13.5272 35.1367 12.5888 36.3181 12.5888C37.4995 12.5888 38.4544 13.5272 38.4544 14.6875C38.4544 15.8478 37.4995 16.7862 36.3181 16.7862C35.1367 16.7862 34.1817 15.8478 34.1817 14.6875ZM8.54534 14.6875C8.54534 13.5272 9.5003 12.5888 10.6817 12.5888C11.8631 12.5888 12.8181 13.5272 12.8181 14.6875C12.8181 15.8478 11.8631 16.7862 10.6817 16.7862C9.5003 16.7862 8.54534 15.8478 8.54534 14.6875ZM4.27286 25.1793H42.7275V4.19736H4.27286V25.1793ZM42.7273 0H4.27273C1.91632 0 0 1.88163 0 4.19573V25.1793C0 27.4934 1.91632 29.375 4.27273 29.375H42.7273C45.0838 29.375 47 27.4934 47 25.1793V4.19573C47 1.88163 45.0838 0 42.7273 0ZM23.4998 12.5888C24.6793 12.5888 25.6363 13.5288 25.6363 14.6875C25.6363 15.8462 24.6793 16.7862 23.4998 16.7862C22.3206 16.7862 21.3635 15.8462 21.3635 14.6875C21.3635 13.5288 22.3206 12.5888 23.4998 12.5888ZM23.5002 20.9819C27.0338 20.9819 29.9092 18.157 29.9092 14.6875C29.9092 11.2164 27.0338 8.39309 23.5002 8.39309C19.9666 8.39309 17.0911 11.2164 17.0911 14.6875C17.0911 18.157 19.9666 20.9819 23.5002 20.9819Z" fill="#212833"/>
</svg>
