<svg width="11" height="16" viewBox="0 0 11 16" fill="none" xmlns="http://www.w3.org/2000/svg">
<path d="M9.98347 11.3701C10.0621 11.2915 10.062 11.1641 9.98342 11.0855C9.90484 11.007 9.77749 11.007 9.69893 11.0856L6.41573 14.3686C5.82907 14.9553 4.87793 14.9553 4.29127 14.3686L1.00807 11.0856C0.929516 11.007 0.802162 11.007 0.723581 11.0855C0.644958 11.1641 0.644936 11.2915 0.72353 11.3701L4.29124 14.9378C4.87791 15.5245 5.82909 15.5245 6.41576 14.9378L9.98347 11.3701Z" fill="#E7E7E7"/>
<path d="M9.98347 4.62988C10.0621 4.70847 10.062 4.83591 9.98342 4.91447C9.90484 4.993 9.77749 4.99298 9.69893 4.91442L6.41573 1.63137C5.82907 1.04474 4.87793 1.04474 4.29127 1.63137L1.00807 4.91443C0.929516 4.99298 0.802162 4.993 0.723581 4.91447C0.644958 4.83591 0.644936 4.70847 0.72353 4.62988L4.29124 1.06216C4.87791 0.475493 5.82909 0.475493 6.41576 1.06216L9.98347 4.62988Z" fill="#E7E7E7"/>
</svg>
