<svg width="505" height="505" viewBox="0 0 505 505" fill="none" xmlns="http://www.w3.org/2000/svg">
<path d="M0 252.5C0 113.048 113.048 0 252.5 0V0C391.952 0 505 113.048 505 252.5V252.5C505 391.952 391.952 505 252.5 505V505C113.048 505 0 391.952 0 252.5V252.5Z" fill="#D80027"/>
<path d="M270.754 201.363C265.672 222.505 256.64 218.474 252.207 236.911C226.1 230.635 210.02 204.38 216.297 178.269C222.572 152.162 248.829 136.082 274.937 142.358C266.072 179.235 275.3 182.454 270.754 201.363ZM203.003 217.029C221.541 228.397 214.913 235.741 231.079 245.654C217.04 268.545 187.104 275.723 164.212 261.685C141.32 247.647 134.141 217.708 148.18 194.817C180.512 214.644 186.422 206.862 203.003 217.029ZM196.967 286.306C213.507 272.188 218.443 280.759 232.867 268.448C250.301 288.873 247.875 319.563 227.451 336.997C207.025 354.431 176.335 352.004 158.903 331.581C187.749 306.961 182.174 298.933 196.967 286.306ZM260.989 313.455C252.671 293.363 262.348 291.314 255.1 273.794C279.912 263.526 308.352 275.315 318.623 300.128C328.891 324.94 317.1 353.38 292.287 363.649C277.782 328.606 268.427 331.427 260.989 313.455ZM306.592 260.956C284.913 262.657 285.955 252.819 267.052 254.302C264.952 227.532 284.954 204.127 311.725 202.025C338.496 199.93 361.901 219.931 364 246.701C326.19 249.666 325.979 259.437 306.592 260.956Z" fill="#F0F0F0"/>
</svg>
