<svg width="27" height="36" viewBox="0 0 27 36" fill="none" xmlns="http://www.w3.org/2000/svg">
<path fill-rule="evenodd" clip-rule="evenodd" d="M21.9366 3.42831H18.2581C17.5493 1.44 15.693 0 13.5 0C11.3057 0 9.44932 1.44 8.74059 3.42831H5.06199C2.27749 3.42831 0 5.74338 0 8.57077V30.8575C0 33.6863 2.27749 36 5.06199 36H21.9366C24.7212 36 27 33.6863 27 30.8575V8.57077C27 5.74338 24.7212 3.42831 21.9366 3.42831ZM13.5 3.42831C14.4282 3.42831 15.1873 4.19954 15.1873 5.14246C15.1873 6.08538 14.4282 6.85662 13.5 6.85662C12.5718 6.85662 11.8127 6.08538 11.8127 5.14246C11.8127 4.19954 12.5718 3.42831 13.5 3.42831ZM23.624 30.8575C23.624 31.8005 22.8648 32.5717 21.9366 32.5717H5.06199C4.13382 32.5717 3.37466 31.8005 3.37466 30.8575V8.57077C3.37466 7.62923 4.13382 6.85662 5.06199 6.85662H6.74932V8.57077C6.74932 9.51369 7.50984 10.2863 8.43665 10.2863H18.562C19.4902 10.2863 20.2493 9.51369 20.2493 8.57077V6.85662H21.9366C22.8648 6.85662 23.624 7.62923 23.624 8.57077V30.8575Z" fill="#212833"/>
</svg>
