<svg width="505" height="505" viewBox="0 0 505 505" fill="none" xmlns="http://www.w3.org/2000/svg">
<path d="M505 252.475C505 391.969 392 505 252.5 505C113 505 0 391.969 0 252.475C0 247.274 0.15 242.124 0.51 237.023H504.51C504.837 242.124 505 247.274 505 252.475Z" fill="#F2F2F2"/>
<path d="M505 252.475H0C0 247.274 0.15 242.124 0.51 237.023C8.43 104.75 118.27 0 252.51 0C386.75 0 496.57 104.75 504.55 237.023C504.85 242.124 505 247.274 505 252.475Z" fill="#EF2B2D"/>
<path d="M172.98 102.48L177.07 113.722L188.97 114.262L179.43 121.472L182.7 133.114L172.76 126.423L162.84 132.973L166.25 121.572L156.83 114.042L168.83 113.872L172.98 102.48Z" fill="white"/>
<path d="M253.47 102.48L257.56 113.722L269.46 114.262L259.92 121.472L263.2 133.114L253.25 126.423L243.33 132.973L246.75 121.572L237.32 114.042L249.33 113.872L253.47 102.48Z" fill="white"/>
<path d="M193.711 143.634L197.801 154.875L209.701 155.425L200.161 162.626L203.441 174.277L193.491 167.587L183.571 174.137L186.991 162.736L177.561 155.205L189.561 155.035L193.711 143.634Z" fill="white"/>
<path d="M239.189 143.634L243.269 154.875L255.179 155.425L245.629 162.626L248.909 174.277L238.959 167.587L229.049 174.137L232.459 162.736L223.039 155.205L235.039 155.035L239.189 143.634Z" fill="white"/>
<path d="M214.65 73.6177L218.74 84.8688L230.64 85.4088L221.1 92.6196L224.37 104.261L214.43 97.57L204.51 104.121L207.92 92.7196L198.5 85.1888L210.5 85.0188L214.65 73.6177Z" fill="white"/>
<path d="M189.859 198.15C179.411 201.845 168.23 202.979 157.253 201.459C146.276 199.939 135.824 195.807 126.773 189.411C117.723 183.016 110.338 174.542 105.239 164.702C100.14 154.862 97.4755 143.943 97.4688 132.86C97.462 121.777 100.113 110.854 105.2 101.008C110.287 91.1615 117.661 82.6791 126.704 76.2723C135.746 69.8656 146.194 65.7213 157.169 64.1874C168.144 62.6535 179.327 63.7747 189.779 67.4568C172.651 67.7668 156.329 74.7922 144.329 87.0199C132.329 99.2476 125.611 115.699 125.622 132.833C125.632 149.966 132.37 166.409 144.385 178.622C156.4 190.835 172.73 197.841 189.859 198.13V198.15Z" fill="white"/>
<path opacity="0.12" d="M393.219 72.8876C350.809 39.5048 297.934 22.2501 243.999 24.1928C120.329 28.3532 21.439 131.993 22.789 255.736C23.0098 277.969 26.4764 300.051 33.0791 321.282C34.4202 325.652 37.1596 329.461 40.876 332.123C44.5924 334.784 49.0801 336.151 53.649 336.014C304.779 327.483 381.699 151.865 399.989 95.2898C401.282 91.3111 401.327 87.0318 400.116 83.0271C398.906 79.0224 396.499 75.484 393.219 72.8876Z" fill="white"/>
</svg>
