<svg width="17" height="19" viewBox="0 0 17 19" fill="none" xmlns="http://www.w3.org/2000/svg">
<path d="M9.27141 8.90697L12.3332 5.84515L2.44366 0.286855C1.78822 -0.0672682 1.1742 -0.11697 0.635765 0.270288L9.27141 8.90697ZM12.8551 12.4917L16.0381 10.7014C16.6593 10.3535 17 9.86062 17 9.3139C17 8.76822 16.6593 8.27431 16.0391 7.9264L13.1574 6.30799L9.91339 9.55102L12.8551 12.4917ZM0.103545 1.02306C0.0372761 1.22704 0 1.45484 0 1.70439V16.9307C0 17.3252 0.0869778 17.6648 0.244366 17.935L8.6284 9.54998L0.103545 1.02306ZM9.27141 10.192L0.933975 18.5304C1.09343 18.5915 1.26532 18.6236 1.44652 18.6236C1.76958 18.6236 2.1061 18.5284 2.44884 18.3378L12.0319 12.9566L9.27141 10.192Z" fill="#CACACA"/>
</svg>
