<svg width="20" height="20" viewBox="0 0 20 20" fill="none" xmlns="http://www.w3.org/2000/svg">
<path d="M19.5906 12.8219C19.8562 11.925 20 10.9781 20 10C20 8.13125 19.4844 6.38125 18.5875 4.88438V4.88125C18.5844 4.875 18.5781 4.87187 18.5781 4.86562C16.8281 1.95312 13.6375 0 10 0C4.9 0 0.684375 3.8375 0.078125 8.775V8.78125C0.0268114 9.18548 0.000719289 9.59252 0 10C0 15.5125 4.4875 20 10 20C14.5063 20 18.325 17.0031 19.5719 12.8969C19.5813 12.8719 19.5875 12.8469 19.5906 12.8219ZM0.60625 10C0.60625 9.75313 0.61875 9.5125 0.6375 9.26875C1.63437 9.72812 3.00625 10.1656 4.72813 10.5688C4.83125 10.5938 4.94062 10.6125 5.04375 10.6375C5.08125 11.8469 5.21875 12.9906 5.44063 14.0375C5.43125 14.0344 5.41875 14.0344 5.40937 14.0312C3.70937 13.6844 2.17188 13.1594 0.946875 12.5125C0.728125 11.7125 0.60625 10.8687 0.60625 10ZM1.89062 5.26875C2.80313 5.58125 4.325 6 5.3875 6.23125C5.15937 7.39062 5.03438 8.65938 5.03438 10V10.0156L4.86562 9.97812C3.06562 9.55937 1.675 9.10625 0.709375 8.62813C0.884375 7.41875 1.29375 6.28438 1.89062 5.26875ZM19.2687 8.48438C18.1812 9.16875 16.6562 9.77187 15.1469 10.1156C15.0875 10.1281 15.0219 10.1375 14.9625 10.15C14.9625 10.1 14.9656 10.05 14.9656 10C14.9656 8.74063 14.8562 7.54375 14.6531 6.44375C14.6687 6.44063 14.6812 6.44063 14.6969 6.4375C15.8438 6.2375 17.3687 5.68438 18.1719 5.37188C18.7094 6.31875 19.0875 7.36875 19.2687 8.48438ZM14.3594 10C14.3594 10.0875 14.3562 10.1719 14.3562 10.2594C13.0906 10.4781 11.7344 10.5844 10.3031 10.5813V6.76562C11.552 6.78607 12.8006 6.70875 14.0375 6.53438C14.2437 7.6125 14.3594 8.78438 14.3594 10ZM5.64062 10C5.64062 8.71562 5.76875 7.47813 5.99688 6.35C7.2 6.57188 8.44063 6.70312 9.69688 6.74687V10.5781C8.33125 10.5406 6.95 10.3938 5.64062 10.1406V10ZM10.3031 6.15937V0.63125C11.8719 0.875 13.2406 3 13.9156 5.9375C12.7625 6.1 11.5563 6.175 10.3031 6.15937ZM9.69688 0.63125V6.1375C8.4875 6.09375 7.29063 5.96562 6.12813 5.75625C6.81563 2.91563 8.1625 0.871875 9.69688 0.63125ZM5.65625 10.7594C6.96563 11.0031 8.3375 11.1469 9.69688 11.1844V14.5156C8.47188 14.4812 7.26875 14.3625 6.10938 14.1594C5.8625 13.1125 5.70312 11.9625 5.65625 10.7594ZM9.69688 15.1188V19.3656C8.26562 19.1406 6.99687 17.35 6.275 14.8C7.3875 14.9844 8.53125 15.0875 9.69688 15.1188ZM10.3031 19.3687V15.1344H10.425C11.5531 15.1344 12.6438 15.0625 13.6875 14.9219C12.9625 17.4062 11.7125 19.1469 10.3031 19.3687ZM10.3031 14.5219V11.1938H10.3937C11.7781 11.1938 13.0969 11.0844 14.3375 10.8813C14.2812 12.0906 14.1156 13.2375 13.8594 14.2781C12.7312 14.4469 11.5375 14.5281 10.3031 14.5219ZM14.95 10.7687C15.0594 10.7469 15.1719 10.7312 15.2781 10.7094C16.7469 10.3781 18.2313 9.80313 19.3531 9.14688C19.3781 9.42813 19.3938 9.7125 19.3938 10.0031C19.3938 10.9 19.2656 11.7688 19.0281 12.5906C17.8687 13.2969 16.3344 13.8438 14.5781 14.1687L14.5281 14.1781C14.7594 13.1281 14.9062 11.9812 14.95 10.7687ZM17.85 4.84688C17.0469 5.15625 15.6438 5.65625 14.5938 5.84063L14.5344 5.85C14.0344 3.59375 13.1375 1.80313 12.0094 0.825C14.4375 1.35625 16.5219 2.83125 17.85 4.84688ZM7.99375 0.825C6.9 1.77188 6.02187 3.48125 5.51562 5.64062C4.525 5.425 3.125 5.04375 2.22187 4.74062C3.55 2.77813 5.60313 1.34688 7.99375 0.825ZM1.2125 13.3219C2.3875 13.875 3.75313 14.3125 5.2875 14.625C5.3875 14.6469 5.49062 14.6594 5.59062 14.6812C6.10625 16.6875 6.95 18.275 7.99062 19.1781C4.87187 18.4937 2.32812 16.2563 1.2125 13.3219ZM12.0062 19.175C13.0219 18.2938 13.8531 16.7563 14.3719 14.8125C14.475 14.7938 14.5844 14.7813 14.6875 14.7625C16.2531 14.475 17.6063 14.0312 18.7344 13.4469C17.5969 16.3219 15.0812 18.5031 12.0062 19.175Z" fill="#C1C1C1"/>
</svg>
