<svg width="17" height="13" viewBox="0 0 17 13" fill="none" xmlns="http://www.w3.org/2000/svg">
<path d="M1.37438 5.17289C3.09938 3.51789 5.43938 2.50039 8.01938 2.50039C10.5994 2.50039 12.9394 3.51789 14.6644 5.17289C14.9844 5.47789 15.4894 5.46789 15.7944 5.15039C16.0994 4.83289 16.0894 4.32539 15.7719 4.02039C13.7619 2.08789 11.0294 0.900391 8.01938 0.900391C5.00938 0.900391 2.27688 2.08789 0.264378 4.01789C-0.0531222 4.32539 -0.0631222 4.83039 0.241878 5.15039C0.546878 5.47039 1.05438 5.48039 1.37188 5.17289H1.37438ZM8.01938 6.50039C9.43938 6.50039 10.7344 7.02789 11.7244 7.90039C12.0569 8.19289 12.5619 8.16039 12.8544 7.83039C13.1469 7.50039 13.1144 6.99289 12.7844 6.70039C11.5144 5.58039 9.84438 4.90039 8.01938 4.90039C6.19438 4.90039 4.52438 5.58039 3.25688 6.70039C2.92438 6.99289 2.89438 7.49789 3.18688 7.83039C3.47938 8.16289 3.98438 8.19289 4.31688 7.90039C5.30438 7.02789 6.59938 6.50039 8.02188 6.50039H8.01938ZM9.61938 10.5004C9.61938 10.076 9.45081 9.66908 9.15075 9.36902C8.85069 9.06896 8.44372 8.90039 8.01938 8.90039C7.59503 8.90039 7.18807 9.06896 6.88801 9.36902C6.58795 9.66908 6.41938 10.076 6.41938 10.5004C6.41938 10.9247 6.58795 11.3317 6.88801 11.6318C7.18807 11.9318 7.59503 12.1004 8.01938 12.1004C8.44372 12.1004 8.85069 11.9318 9.15075 11.6318C9.45081 11.3317 9.61938 10.9247 9.61938 10.5004Z" fill="#7B7B7B"/>
</svg>
