<svg width="18" height="11" viewBox="0 0 18 11" fill="none" xmlns="http://www.w3.org/2000/svg">
<path d="M12.7237 0.328595C12.5494 0.502969 12.555 0.778595 12.7237 0.96422L16.4587 5.14922L0.45 5.14922C0.2025 5.14922 -2.46894e-07 5.35172 -2.36076e-07 5.59922C-2.25257e-07 5.84672 0.2025 6.04922 0.45 6.04922L16.4587 6.04922L12.7294 10.2342C12.5662 10.4255 12.5494 10.6898 12.7238 10.8642C12.8981 11.0386 13.2019 11.0498 13.365 10.8698C13.365 10.8698 17.82 5.97609 17.865 5.91984C17.91 5.86359 18 5.76235 18 5.59922C18 5.43609 17.91 5.32359 17.865 5.27859C17.82 5.23359 13.365 0.328595 13.365 0.328595C13.2806 0.244219 13.1625 0.19922 13.0444 0.19922C12.9262 0.19922 12.8137 0.244219 12.7237 0.328595Z" fill="#212833"/>
</svg>
